<svg width="292.9" height="79.301" viewBox="0 0 292.9 79.301" xmlns="http://www.w3.org/2000/svg"><g id="svgGroup" stroke-linecap="round" fill-rule="evenodd" font-size="9pt" stroke="#000" stroke-width="0.05mm" fill="#5bde64" style="stroke:#000;stroke-width:0.05mm;fill:#5bde64"><path d="M 60.3 8.6 L 76.1 8.6 L 76.1 78.4 L 62.1 78.4 L 62.1 33 L 43.4 78.4 L 32.8 78.4 L 14 33 L 14 78.4 L 0 78.4 L 0 8.6 L 15.9 8.6 L 38.1 60.5 L 60.3 8.6 Z M 292.5 54.9 L 252 54.9 Q 252.5 60.9 256.2 64.3 A 12.795 12.795 0 0 0 264.549 67.684 A 16.604 16.604 0 0 0 265.3 67.7 Q 273.1 67.7 276.4 61 L 291.5 61 Q 289.1 69 282.3 74.15 A 25.141 25.141 0 0 1 270.782 78.915 A 33.694 33.694 0 0 1 265.6 79.3 A 30.891 30.891 0 0 1 256.737 78.065 A 27.022 27.022 0 0 1 251.25 75.75 Q 244.9 72.2 241.35 65.7 Q 237.8 59.2 237.8 50.7 A 35.78 35.78 0 0 1 238.648 42.744 A 28.183 28.183 0 0 1 241.3 35.6 Q 244.8 29.1 251.1 25.6 A 27.733 27.733 0 0 1 261.138 22.377 A 35.017 35.017 0 0 1 265.6 22.1 A 31.503 31.503 0 0 1 273.965 23.176 A 27.018 27.018 0 0 1 279.75 25.5 Q 286 28.9 289.45 35.15 A 27.694 27.694 0 0 1 292.657 45.328 A 34.879 34.879 0 0 1 292.9 49.5 A 38.688 38.688 0 0 1 292.802 52.329 A 28.241 28.241 0 0 1 292.5 54.9 Z M 162.8 23 L 176.8 65.5 L 190.8 23 L 205.7 23 L 185.2 78.4 L 168.2 78.4 L 147.8 23 L 162.8 23 Z M 105.564 78.049 A 31.046 31.046 0 0 0 114.5 79.3 A 35.551 35.551 0 0 0 116.747 79.23 A 29.628 29.628 0 0 0 129.15 75.75 Q 135.7 72.2 139.55 65.7 Q 143.4 59.2 143.4 50.7 A 35.383 35.383 0 0 0 143.158 46.513 A 28.022 28.022 0 0 0 139.65 35.7 Q 135.9 29.2 129.4 25.65 Q 122.9 22.1 114.9 22.1 A 34.994 34.994 0 0 0 113.168 22.143 A 29.299 29.299 0 0 0 100.4 25.65 Q 93.9 29.2 90.15 35.7 A 27.023 27.023 0 0 0 87.397 42.467 A 32.755 32.755 0 0 0 86.4 50.7 A 36.026 36.026 0 0 0 86.689 55.324 A 28.419 28.419 0 0 0 90.05 65.7 Q 93.7 72.2 100.1 75.75 A 27.428 27.428 0 0 0 105.564 78.049 Z M 213.6 23 L 227.6 23 L 227.6 78.4 L 213.6 78.4 L 213.6 23 Z M 114.5 67.1 Q 118.3 67.1 121.65 65.25 A 13.097 13.097 0 0 0 126.342 60.812 A 16.234 16.234 0 0 0 127 59.7 A 15.915 15.915 0 0 0 128.561 55.318 Q 129 53.185 129 50.7 A 24.082 24.082 0 0 0 128.553 45.909 Q 127.638 41.406 124.85 38.55 Q 120.7 34.3 114.7 34.3 A 13.904 13.904 0 0 0 108.875 35.5 A 13.594 13.594 0 0 0 104.65 38.55 Q 100.6 42.8 100.6 50.7 A 25.329 25.329 0 0 0 101.015 55.439 Q 101.881 59.978 104.55 62.85 Q 108.5 67.1 114.5 67.1 Z M 252.1 45.5 L 278.4 45.5 A 12.638 12.638 0 0 0 277.657 41.327 A 10.707 10.707 0 0 0 274.5 36.85 A 13.474 13.474 0 0 0 266.631 33.658 A 17.54 17.54 0 0 0 265.2 33.6 A 14.181 14.181 0 0 0 260.688 34.293 A 12.092 12.092 0 0 0 256.45 36.75 A 12.689 12.689 0 0 0 252.869 42.24 A 17.77 17.77 0 0 0 252.1 45.5 Z M 217.604 15.918 A 9.568 9.568 0 0 0 220.7 16.4 A 11.082 11.082 0 0 0 221.439 16.376 A 8.367 8.367 0 0 0 226.85 14.05 Q 229.3 11.7 229.3 8.2 A 9.85 9.85 0 0 0 229.298 7.983 A 7.744 7.744 0 0 0 226.85 2.35 A 8.16 8.16 0 0 0 223.796 0.483 A 9.568 9.568 0 0 0 220.7 0 A 11.082 11.082 0 0 0 219.961 0.025 A 8.367 8.367 0 0 0 214.55 2.35 Q 212.1 4.7 212.1 8.2 A 9.85 9.85 0 0 0 212.102 8.418 A 7.744 7.744 0 0 0 214.55 14.05 A 8.16 8.16 0 0 0 217.604 15.918 Z" vector-effect="non-scaling-stroke"/></g></svg>